<svg width="1200" height="630" viewBox="0 0 1200 630" fill="none" xmlns="http://www.w3.org/2000/svg">
  <rect width="1200" height="630" rx="32" fill="#0F172A"/>
  <rect x="24" y="24" width="1152" height="582" rx="24" fill="url(#paint0_linear_1_2)" stroke="#334155" stroke-width="2"/>
  <path d="M600 150L805 230V350C805 443 746 528 600 566C454 528 395 443 395 350V230L600 150Z" fill="#E2E8F0" fill-opacity="0.14" stroke="#E2E8F0" stroke-width="10"/>
  <path d="M600 210L745 266V352C745 423 701 486 600 518C499 486 455 423 455 352V266L600 210Z" fill="#38BDF8" fill-opacity="0.18"/>
  <path d="M541 351L585 395L669 311" stroke="#38BDF8" stroke-width="28" stroke-linecap="round" stroke-linejoin="round"/>
  <text x="600" y="118" text-anchor="middle" fill="#E2E8F0" font-family="ui-sans-serif, system-ui, -apple-system, BlinkMacSystemFont, 'Segoe UI', sans-serif" font-size="34" font-weight="700" letter-spacing="0.16em">CODEGUARD</text>
  <text x="600" y="500" text-anchor="middle" fill="#E2E8F0" font-family="ui-sans-serif, system-ui, -apple-system, BlinkMacSystemFont, 'Segoe UI', sans-serif" font-size="40" font-weight="700">Placeholder README Image</text>
  <text x="600" y="542" text-anchor="middle" fill="#94A3B8" font-family="ui-sans-serif, system-ui, -apple-system, BlinkMacSystemFont, 'Segoe UI', sans-serif" font-size="24">Swap this out when final product art is ready.</text>
  <defs>
    <linearGradient id="paint0_linear_1_2" x1="120" y1="72" x2="1080" y2="558" gradientUnits="userSpaceOnUse">
      <stop stop-color="#111827"/>
      <stop offset="1" stop-color="#1E293B"/>
    </linearGradient>
  </defs>
</svg>
